<svg width="31" height="31" viewBox="0 0 31 31" fill="none" xmlns="http://www.w3.org/2000/svg">
<path d="M29.3958 15.2292C29.3958 23.0534 23.0534 29.3958 15.2292 29.3958C7.40492 29.3958 1.0625 23.0534 1.0625 15.2292C1.0625 7.40492 7.40492 1.0625 15.2292 1.0625C23.0534 1.0625 29.3958 7.40492 29.3958 15.2292Z" stroke="#464642" stroke-width="2.125"/>
<path d="M24.9376 4.91163C23.783 11.577 17.9733 16.6459 10.9792 16.6459C7.36964 16.6507 3.89522 15.2734 1.26935 12.7968M29.1267 12.4667C26.1276 19.108 19.4466 23.7292 11.6875 23.7292C8.45706 23.7342 5.27846 22.9171 2.45085 21.3549M3.40568 7.42055C4.73294 8.47078 6.30685 9.16394 7.97767 9.43408C9.64848 9.70422 11.3606 9.54236 12.9512 8.96388C14.5418 8.38541 15.9579 7.40957 17.0649 6.12921C18.1718 4.84884 18.9327 3.30655 19.2752 1.64905" stroke="#464642" stroke-width="2.125" stroke-linecap="round" stroke-linejoin="round"/>
</svg>
