<svg width="36" height="36" viewBox="0 0 36 36" fill="none" xmlns="http://www.w3.org/2000/svg">
<path d="M11.829 15C12.858 17.0955 13.956 19.0575 13.704 21.471C13.2975 25.3305 8.61899 26.7825 5.62499 28.56C3.66449 29.7255 4.39799 33 6.80399 33C9.71999 33 12.324 32.7675 14.9565 31.53L20.1165 28.3545C20.8335 28.017 21.7365 28.161 22.5 28.5" stroke="#2D2D2D" stroke-width="2.25" stroke-linecap="round" stroke-linejoin="round"/>
<path d="M24.015 15C22.965 17.0955 21.843 19.0575 22.1025 21.471C22.5165 25.3305 27.2955 26.7825 30.351 28.56C32.352 29.7255 31.6035 33 29.148 33C26.169 33 23.5095 32.7675 20.823 31.53L15.552 28.3545C14.937 28.071 14.187 28.128 13.5 28.3545" stroke="#2D2D2D" stroke-width="2.25" stroke-linecap="round" stroke-linejoin="round"/>
<path d="M15 6C15 6.79565 15.3161 7.55871 15.8787 8.12132C16.4413 8.68393 17.2044 9 18 9C18.7956 9 19.5587 8.68393 20.1213 8.12132C20.6839 7.55871 21 6.79565 21 6C21 5.20435 20.6839 4.44129 20.1213 3.87868C19.5587 3.31607 18.7956 3 18 3C17.2044 3 16.4413 3.31607 15.8787 3.87868C15.3161 4.44129 15 5.20435 15 6Z" stroke="#2D2D2D" stroke-width="2.25"/>
<path d="M4.5 24C8.169 24 9.816 19.9425 10.3395 17.145C10.4775 16.413 10.6995 15.6855 11.184 15.1215C12.0284 14.1411 13.0745 13.3547 14.2509 12.8159C15.4273 12.2772 16.7061 11.9989 18 12C20.724 12 23.166 13.2105 24.816 15.1215C25.3005 15.6855 25.5225 16.413 25.6605 17.1435C26.1855 19.9425 27.831 24 31.5 24" stroke="#2D2D2D" stroke-width="2.25" stroke-linecap="round" stroke-linejoin="round"/>
</svg>
