<svg width="24" height="24" viewBox="0 0 24 24" fill="none" xmlns="http://www.w3.org/2000/svg">
<path d="M9.09198 16C8.78198 16.682 8.06998 16.986 7.43898 17.316L3.79298 19.223C2.32798 19.99 3.05898 22 4.62998 22C8.12198 22 10.884 20.306 14.04 19C14.835 18.671 15.22 18.741 16 19.091" stroke="#F6F1E8" stroke-linecap="round" stroke-linejoin="round"/>
<path d="M9 19.091C9.78 18.741 10.165 18.671 10.96 19C14.116 20.306 16.878 22 20.37 22C21.94 22 22.672 19.99 21.207 19.223L17.561 17.316C16.93 16.986 16.217 16.682 15.908 16" stroke="#F6F1E8" stroke-linecap="round" stroke-linejoin="round"/>
<path d="M10 4C10 4.53043 10.2107 5.03914 10.5858 5.41421C10.9609 5.78929 11.4696 6 12 6C12.5304 6 13.0391 5.78929 13.4142 5.41421C13.7893 5.03914 14 4.53043 14 4C14 3.46957 13.7893 2.96086 13.4142 2.58579C13.0391 2.21071 12.5304 2 12 2C11.4696 2 10.9609 2.21071 10.5858 2.58579C10.2107 2.96086 10 3.46957 10 4Z" stroke="#F6F1E8"/>
<path d="M12 8C10.4087 8 8.88258 8.63214 7.75736 9.75736C6.63214 10.8826 6 12.4087 6 14C7.5913 14 9.11742 13.3679 10.2426 12.2426C11.3679 11.1174 12 9.5913 12 8ZM12 8C13.5913 8 15.1174 8.63214 16.2426 9.75736C17.3679 10.8826 18 12.4087 18 14C16.4087 14 14.8826 13.3679 13.7574 12.2426C12.6321 11.1174 12 9.5913 12 8Z" stroke="#F6F1E8" stroke-linejoin="round"/>
</svg>
