<svg width="24" height="24" viewBox="0 0 24 24" fill="none" xmlns="http://www.w3.org/2000/svg">
<path d="M10.5049 15.01L17.1399 10.5C17.3279 10.3593 17.4933 10.1967 17.6359 10.012C18.1219 9.382 18.1119 8.507 17.8039 7.775C17.4544 6.94986 16.8689 6.24633 16.121 5.75265C15.3731 5.25898 14.4961 4.99715 13.5999 5C12.6639 5 11.7949 5.28 11.0719 5.758L3.99194 10.757" stroke="#F6F1E8" stroke-linecap="round" stroke-linejoin="round"/>
<path d="M5.99499 13.507C5.99499 14.203 6.36399 15.586 8.03499 15.966C9.04199 16.194 11.973 15.231 10.539 12.439C9.10499 9.647 5.65199 9.632 4.24699 10.568C3.38799 11.088 1.72099 12.716 2.03699 14.88C2.14999 16.19 3.18199 18.85 6.41199 19.002H16.304C17.226 18.929 17.416 18.795 18.118 18.256C19.063 17.408 20.64 15.848 21.557 14.822C21.755 14.6 21.968 14.372 21.996 14.076C22.141 12.499 19.749 13.182 18.016 12.994" stroke="#F6F1E8" stroke-linecap="round" stroke-linejoin="round"/>
</svg>
