<svg width="30" height="30" viewBox="0 0 30 30" fill="none" xmlns="http://www.w3.org/2000/svg">
<path d="M14.5312 0C22.5 0 29.0625 6.5625 29.0625 14.5312C29.0625 22.5586 22.5 29.0625 14.5312 29.0625C6.50391 29.0625 0 22.5586 0 14.5312C0 6.5625 6.50391 0 14.5312 0ZM14.5312 22.0312C15.5273 22.0312 16.4062 21.2109 16.4062 20.1562C16.4062 19.1602 15.5273 18.2812 14.5312 18.2812C13.4766 18.2812 12.6562 19.1602 12.6562 20.1562C12.6562 21.2109 13.4766 22.0312 14.5312 22.0312ZM14.5312 14.5312C17.6367 14.5312 20.1562 12.0703 20.1562 8.90625C20.1562 5.80078 17.6367 3.28125 14.5312 3.28125C8.26172 3.28125 3.28125 8.32031 3.28125 14.5312C3.28125 20.8008 8.26172 25.7812 14.5312 25.7812C11.3672 25.7812 8.90625 23.3203 8.90625 20.1562C8.90625 17.0508 11.3672 14.5312 14.5312 14.5312ZM14.5312 7.03125C15.5273 7.03125 16.4062 7.91016 16.4062 8.90625C16.4062 9.96094 15.5273 10.7812 14.5312 10.7812C13.4766 10.7812 12.6562 9.96094 12.6562 8.90625C12.6562 7.91016 13.4766 7.03125 14.5312 7.03125Z" fill="#2D2D2D"/>
</svg>
